<svg width="180" height="30" viewBox="0 0 180 30" fill="none" xmlns="http://www.w3.org/2000/svg">
<path d="M21.0078 11.22C22.7238 11.22 24.0845 11.7227 25.0898 12.728C26.1125 13.716 26.6238 15.1633 26.6238 17.07V25H24.7778V17.252C24.7778 15.8307 24.4225 14.7473 23.7118 14.002C23.0012 13.2567 21.9872 12.884 20.6698 12.884C19.1965 12.884 18.0265 13.326 17.1598 14.21C16.3105 15.0767 15.8858 16.2813 15.8858 17.824V25H14.0398V11.324H15.8078V13.846C16.3105 13.014 17.0038 12.3727 17.8878 11.922C18.7892 11.454 19.8292 11.22 21.0078 11.22ZM37.2763 25.13C35.959 25.13 34.7716 24.8353 33.7143 24.246C32.657 23.6393 31.825 22.8073 31.2183 21.75C30.6116 20.6927 30.3083 19.4967 30.3083 18.162C30.3083 16.8273 30.6116 15.6313 31.2183 14.574C31.825 13.5167 32.657 12.6933 33.7143 12.104C34.7716 11.5147 35.959 11.22 37.2763 11.22C38.5936 11.22 39.781 11.5147 40.8383 12.104C41.8956 12.6933 42.719 13.5167 43.3083 14.574C43.915 15.6313 44.2183 16.8273 44.2183 18.162C44.2183 19.4967 43.915 20.6927 43.3083 21.75C42.719 22.8073 41.8956 23.6393 40.8383 24.246C39.781 24.8353 38.5936 25.13 37.2763 25.13ZM37.2763 23.492C38.247 23.492 39.1136 23.2753 39.8763 22.842C40.6563 22.3913 41.263 21.7587 41.6963 20.944C42.1296 20.1293 42.3463 19.202 42.3463 18.162C42.3463 17.122 42.1296 16.1947 41.6963 15.38C41.263 14.5653 40.6563 13.9413 39.8763 13.508C39.1136 13.0573 38.247 12.832 37.2763 12.832C36.3056 12.832 35.4303 13.0573 34.6503 13.508C33.8876 13.9413 33.281 14.5653 32.8303 15.38C32.397 16.1947 32.1803 17.122 32.1803 18.162C32.1803 19.202 32.397 20.1293 32.8303 20.944C33.281 21.7587 33.8876 22.3913 34.6503 22.842C35.4303 23.2753 36.3056 23.492 37.2763 23.492ZM55.1891 24.168C54.8424 24.48 54.4091 24.7227 53.8891 24.896C53.3864 25.052 52.8578 25.13 52.3031 25.13C51.0204 25.13 50.0324 24.7833 49.3391 24.09C48.6458 23.3967 48.2991 22.4173 48.2991 21.152V12.884H45.8551V11.324H48.2991V8.334H50.1451V11.324H54.3051V12.884H50.1451V21.048C50.1451 21.8627 50.3444 22.4867 50.7431 22.92C51.1591 23.336 51.7484 23.544 52.5111 23.544C52.8924 23.544 53.2564 23.4833 53.6031 23.362C53.9671 23.2407 54.2791 23.0673 54.5391 22.842L55.1891 24.168ZM69.9752 18.734H58.5352C58.6392 20.1553 59.1852 21.308 60.1732 22.192C61.1612 23.0587 62.4092 23.492 63.9172 23.492C64.7665 23.492 65.5465 23.3447 66.2572 23.05C66.9678 22.738 67.5832 22.2873 68.1032 21.698L69.1432 22.894C68.5365 23.622 67.7738 24.1767 66.8552 24.558C65.9538 24.9393 64.9572 25.13 63.8652 25.13C62.4612 25.13 61.2132 24.8353 60.1212 24.246C59.0465 23.6393 58.2058 22.8073 57.5992 21.75C56.9925 20.6927 56.6892 19.4967 56.6892 18.162C56.6892 16.8273 56.9752 15.6313 57.5472 14.574C58.1365 13.5167 58.9338 12.6933 59.9392 12.104C60.9618 11.5147 62.1058 11.22 63.3712 11.22C64.6365 11.22 65.7718 11.5147 66.7772 12.104C67.7825 12.6933 68.5712 13.5167 69.1432 14.574C69.7152 15.614 70.0012 16.81 70.0012 18.162L69.9752 18.734ZM63.3712 12.806C62.0538 12.806 60.9445 13.2307 60.0432 14.08C59.1592 14.912 58.6565 16.004 58.5352 17.356H68.2332C68.1118 16.004 67.6005 14.912 66.6992 14.08C65.8152 13.2307 64.7058 12.806 63.3712 12.806ZM85.6146 15.614C86.8106 15.874 87.7292 16.394 88.3706 17.174C89.0292 17.9367 89.3586 18.9247 89.3586 20.138C89.3586 21.698 88.7779 22.9027 87.6166 23.752C86.4726 24.584 84.7739 25 82.5206 25H74.1486V6.8H82.0006C84.0286 6.8 85.5972 7.20733 86.7066 8.022C87.8332 8.83667 88.3966 9.98933 88.3966 11.48C88.3966 12.4853 88.1452 13.3433 87.6426 14.054C87.1572 14.7473 86.4812 15.2673 85.6146 15.614ZM76.0726 8.386V14.99H81.8706C83.3439 14.99 84.4792 14.7127 85.2766 14.158C86.0739 13.586 86.4726 12.7627 86.4726 11.688C86.4726 10.6133 86.0739 9.79867 85.2766 9.244C84.4792 8.672 83.3439 8.386 81.8706 8.386H76.0726ZM82.4946 23.414C84.1239 23.414 85.3546 23.1367 86.1866 22.582C87.0186 22.0273 87.4346 21.1607 87.4346 19.982C87.4346 17.7113 85.7879 16.576 82.4946 16.576H76.0726V23.414H82.4946ZM98.1441 11.22C99.9295 11.22 101.299 11.6707 102.252 12.572C103.205 13.456 103.682 14.7733 103.682 16.524V25H101.914V22.868C101.498 23.5787 100.883 24.1333 100.068 24.532C99.2708 24.9307 98.3175 25.13 97.2081 25.13C95.6828 25.13 94.4695 24.766 93.5681 24.038C92.6668 23.31 92.2161 22.348 92.2161 21.152C92.2161 19.9907 92.6321 19.0547 93.4641 18.344C94.3135 17.6333 95.6568 17.278 97.4941 17.278H101.836V16.446C101.836 15.2673 101.507 14.3747 100.848 13.768C100.189 13.144 99.2275 12.832 97.9621 12.832C97.0955 12.832 96.2635 12.9793 95.4661 13.274C94.6688 13.5513 93.9841 13.9413 93.4121 14.444L92.5801 13.066C93.2735 12.4767 94.1055 12.026 95.0761 11.714C96.0468 11.3847 97.0695 11.22 98.1441 11.22ZM97.4941 23.674C98.5341 23.674 99.4268 23.44 100.172 22.972C100.917 22.4867 101.472 21.7933 101.836 20.892V18.656H97.5461C95.2061 18.656 94.0361 19.4707 94.0361 21.1C94.0361 21.8973 94.3395 22.53 94.9461 22.998C95.5528 23.4487 96.4021 23.674 97.4941 23.674ZM112.362 25.13C111.253 25.13 110.187 24.974 109.164 24.662C108.159 24.3327 107.37 23.9253 106.798 23.44L107.63 21.984C108.202 22.4347 108.921 22.8073 109.788 23.102C110.655 23.3793 111.556 23.518 112.492 23.518C113.74 23.518 114.659 23.3273 115.248 22.946C115.855 22.5473 116.158 21.9927 116.158 21.282C116.158 20.7793 115.993 20.3893 115.664 20.112C115.335 19.8173 114.919 19.6007 114.416 19.462C113.913 19.306 113.246 19.1587 112.414 19.02C111.305 18.812 110.412 18.604 109.736 18.396C109.06 18.1707 108.479 17.798 107.994 17.278C107.526 16.758 107.292 16.0387 107.292 15.12C107.292 13.976 107.769 13.04 108.722 12.312C109.675 11.584 111.001 11.22 112.7 11.22C113.584 11.22 114.468 11.3413 115.352 11.584C116.236 11.8093 116.964 12.1127 117.536 12.494L116.73 13.976C115.603 13.196 114.26 12.806 112.7 12.806C111.521 12.806 110.629 13.014 110.022 13.43C109.433 13.846 109.138 14.392 109.138 15.068C109.138 15.588 109.303 16.004 109.632 16.316C109.979 16.628 110.403 16.862 110.906 17.018C111.409 17.1567 112.102 17.304 112.986 17.46C114.078 17.668 114.953 17.876 115.612 18.084C116.271 18.292 116.834 18.6473 117.302 19.15C117.77 19.6527 118.004 20.346 118.004 21.23C118.004 22.426 117.501 23.3793 116.496 24.09C115.508 24.7833 114.13 25.13 112.362 25.13ZM133.325 18.734H121.885C121.989 20.1553 122.535 21.308 123.523 22.192C124.511 23.0587 125.759 23.492 127.267 23.492C128.116 23.492 128.896 23.3447 129.607 23.05C130.317 22.738 130.933 22.2873 131.453 21.698L132.493 22.894C131.886 23.622 131.123 24.1767 130.205 24.558C129.303 24.9393 128.307 25.13 127.215 25.13C125.811 25.13 124.563 24.8353 123.471 24.246C122.396 23.6393 121.555 22.8073 120.949 21.75C120.342 20.6927 120.039 19.4967 120.039 18.162C120.039 16.8273 120.325 15.6313 120.897 14.574C121.486 13.5167 122.283 12.6933 123.289 12.104C124.311 11.5147 125.455 11.22 126.721 11.22C127.986 11.22 129.121 11.5147 130.127 12.104C131.132 12.6933 131.921 13.5167 132.493 14.574C133.065 15.614 133.351 16.81 133.351 18.162L133.325 18.734ZM126.721 12.806C125.403 12.806 124.294 13.2307 123.393 14.08C122.509 14.912 122.006 16.004 121.885 17.356H131.583C131.461 16.004 130.95 14.912 130.049 14.08C129.165 13.2307 128.055 12.806 126.721 12.806Z" fill="#EAEAEA"/>
<path d="M154.8 26.9667L145.6 17L154.8 7.03333L152 4L140 17L152 30L154.8 26.9667ZM165.2 26.9667L174.4 17L165.2 7.03333L168 4L180 17L168 30L165.2 26.9667Z" fill="#7DC3C1"/>
<path d="M158.598 22.0583L160.071 23.654L161.544 22.0583L161.544 12.6459L158.598 12.6459L158.598 22.0583ZM161.544 10.1779C161.544 9.84603 161.297 9.57796 160.99 9.57796L159.152 9.57796C158.846 9.57796 158.598 9.84603 158.598 10.1779L158.598 11.7353L161.544 11.7353V10.1779V10.1779Z" fill="#7DC3C1"/>
</svg>
